<svg width="25" height="25" viewBox="0 0 25 25" fill="none" xmlns="http://www.w3.org/2000/svg">
<g id="Frame 32">
<path id="Vector" d="M12.4161 0C12.4715 0 12.5268 0 12.5839 0C12.6167 0.114697 12.6494 0.229394 12.6822 0.344091C12.7032 0.417641 12.7242 0.491192 12.7459 0.566972C12.7919 0.727835 12.8378 0.888712 12.8836 1.0496C12.9866 1.4105 13.0897 1.7713 13.1954 2.1314C13.2255 2.23435 13.2555 2.3373 13.2865 2.44337C13.3131 2.53356 13.3397 2.62375 13.3671 2.71668C13.4228 2.93624 13.4228 2.93624 13.4228 3.18792C13.6997 3.2156 13.9765 3.24329 14.2617 3.27181C14.224 3.4925 14.1779 3.69108 14.0963 3.90002C13.5326 5.36059 13.7362 7.12696 14.3284 8.54943C14.9101 9.83631 15.7927 10.739 17.1141 11.2416C17.3523 11.321 17.5016 11.3363 17.7485 11.3366C17.8223 11.3368 17.896 11.3369 17.972 11.337C18.0488 11.3366 18.1256 11.3363 18.2047 11.336C18.2815 11.3363 18.3583 11.3366 18.4374 11.337C18.5111 11.3369 18.5849 11.3368 18.6609 11.3366C18.7282 11.3366 18.7956 11.3365 18.865 11.3364C19.0595 11.3323 19.0595 11.3323 19.2953 11.2416C19.3147 10.0864 18.6448 8.93946 17.953 8.05369C17.8771 7.97875 17.8012 7.90381 17.723 7.82659C17.5336 7.63423 17.5336 7.63423 17.5336 7.46644C17.4589 7.43222 17.4589 7.43222 17.3828 7.3973C17.2024 7.30102 17.0752 7.20055 16.9253 7.06271C16.6196 6.79276 16.2907 6.58192 15.9396 6.37584C15.866 7.93211 16.2231 9.1196 17.1141 10.4027C16.2083 10.0932 15.5635 9.22404 15.1452 8.39745C15.0415 8.17268 14.9429 7.94717 14.849 7.71812C14.8193 7.65205 14.7895 7.58597 14.7589 7.51789C14.3723 6.4267 14.5056 4.99761 14.9329 3.94295C15.0134 3.80116 15.0963 3.66059 15.1846 3.52349C16.1393 3.82947 17.0323 4.22399 17.8691 4.78188C17.7118 5.26426 17.7118 5.26426 17.6175 5.45302C17.5535 6.01668 17.5952 6.50722 17.953 6.96309C18.2774 7.2703 18.5917 7.40783 19.0384 7.4245C19.4584 7.40366 19.8304 7.28822 20.2181 7.13087C20.6463 7.75496 20.9765 8.38347 21.2563 9.08662C21.2842 9.15667 21.3122 9.22672 21.341 9.29889C21.5799 9.91616 21.756 10.4905 21.7282 11.1577C21.396 11.1854 21.0638 11.2131 20.7215 11.2416C20.8314 11.2711 20.9412 11.3007 21.0544 11.3311C22.0134 11.5901 22.9689 11.8587 23.9212 12.1415C24.0013 12.1652 24.0815 12.1889 24.164 12.2133C24.2344 12.2342 24.3048 12.2552 24.3774 12.2768C24.5837 12.3331 24.7899 12.3766 25 12.4161C25 12.4715 25 12.5268 25 12.5839C24.9502 12.5974 24.9005 12.6109 24.8492 12.6248C24.6163 12.688 24.3834 12.7513 24.1506 12.8146C24.0249 12.8488 24.0249 12.8488 23.8967 12.8836C23.3255 13.0393 22.7562 13.2 22.1883 13.3671C21.9799 13.4228 21.9799 13.4228 21.8121 13.4228C21.7844 13.6997 21.7567 13.9765 21.7282 14.2617C21.3323 14.2097 20.9644 14.1048 20.5845 13.9865C18.9969 13.5044 17.2168 13.8444 15.7692 14.5767C15.3125 14.8233 14.9512 15.1428 14.5973 15.5201C14.5487 15.5673 14.5 15.6144 14.4498 15.663C13.8323 16.3023 13.5792 17.1962 13.5749 18.0631C13.5737 18.1701 13.5725 18.277 13.5713 18.3872C13.5914 18.722 13.6547 18.9786 13.7584 19.2953C15.1308 19.3184 16.4746 18.4074 17.4344 17.5039C17.9165 17.0328 18.2939 16.5303 18.6242 15.9396C16.9968 15.8859 15.86 16.1826 14.5973 17.198C14.5973 16.7134 15.0366 16.342 15.3622 16.0104C16.627 14.8401 17.9908 14.5227 19.667 14.5812C20.3233 14.6303 20.8969 14.8867 21.4765 15.1846C21.1917 16.1505 20.7903 17.0385 20.2181 17.8691C19.7357 17.7118 19.7357 17.7118 19.547 17.6175C18.995 17.5524 18.5483 17.572 18.0923 17.9081C17.7883 18.1893 17.6415 18.4346 17.5889 18.8493C17.5731 19.3176 17.6186 19.6433 17.8691 20.0503C17.8691 20.1057 17.8691 20.1611 17.8691 20.2181C16.5963 20.9669 15.3464 21.649 13.8423 21.7282C13.8146 21.396 13.7869 21.0638 13.7584 20.7215C13.3567 22.145 12.9656 23.571 12.5839 25C12.5285 25 12.4732 25 12.4161 25C12.3885 24.8944 12.3885 24.8944 12.3604 24.7867C12.1637 24.0405 11.9556 23.2982 11.7392 22.5574C11.7182 22.4848 11.6972 22.4122 11.6755 22.3374C11.6565 22.2725 11.6376 22.2076 11.6181 22.1407C11.5772 21.9799 11.5772 21.9799 11.5772 21.8121C11.2727 21.7844 10.9681 21.7567 10.6544 21.7282C10.7117 21.5589 10.7691 21.3896 10.8264 21.2202C10.8527 21.1387 10.879 21.0572 10.906 20.9732C10.9271 20.9139 10.9481 20.8546 10.9698 20.7936C11.1547 20.2403 11.2004 19.7351 11.1944 19.1537C11.1937 19.0652 11.1929 18.9767 11.1921 18.8855C11.1585 17.3613 10.5771 15.7744 9.47987 14.6812C9.2153 14.4534 8.94292 14.2687 8.64094 14.094C8.56989 14.0514 8.49884 14.0087 8.42564 13.9648C7.64015 13.5648 6.73491 13.5944 5.87248 13.6745C5.78943 13.7022 5.70638 13.7299 5.62081 13.7584C6.00994 15.5427 6.88526 17.175 8.41253 18.2355C8.62546 18.372 8.83895 18.5021 9.0604 18.6242C9.13309 17.2286 8.9729 15.9738 8.05369 14.849C7.87747 14.7019 7.87747 14.7019 7.71812 14.5973C7.74581 14.5419 7.77349 14.4866 7.80201 14.4295C8.98055 15.2182 9.99401 16.2748 10.3188 17.7013C10.526 18.9286 10.5208 20.3174 9.81544 21.3926C9.29944 21.3535 8.9279 21.2361 8.47315 20.9941C8.41487 20.9641 8.35658 20.934 8.29652 20.903C7.89505 20.6936 7.5078 20.4694 7.13087 20.2181C7.14904 20.1663 7.16721 20.1145 7.18593 20.0612C7.36462 19.5176 7.52455 18.9943 7.31177 18.4397C7.10785 18.067 6.87218 17.8362 6.48038 17.6696C6.01506 17.5409 5.60208 17.5536 5.1594 17.7433C5.05558 17.8056 5.05558 17.8056 4.94966 17.8691C4.8943 17.8691 4.83893 17.8691 4.78188 17.8691C4.65304 17.6898 4.53799 17.5131 4.42534 17.3238C4.37495 17.2393 4.37495 17.2393 4.32354 17.153C3.76282 16.1811 3.27181 14.9722 3.27181 13.8423C3.57634 13.8146 3.88087 13.7869 4.19463 13.7584C4.13016 13.7407 4.06568 13.723 3.99926 13.7048C2.66415 13.3381 1.33031 12.9677 0 12.5839C0 12.5285 0 12.4732 0 12.4161C0.0621213 12.3996 0.124243 12.3832 0.188246 12.3662C0.473368 12.2904 0.758391 12.2143 1.04341 12.1382C1.14112 12.1123 1.23883 12.0864 1.3395 12.0597C1.82819 11.929 2.31059 11.7934 2.7865 11.6214C2.93624 11.5772 2.93624 11.5772 3.18792 11.5772C3.2156 11.2727 3.24329 10.9681 3.27181 10.6544C3.48195 10.7384 3.69212 10.8225 3.90002 10.9119C5.34375 11.4511 7.09374 11.2797 8.48823 10.674C9.50752 10.2053 10.3349 9.62958 10.906 8.64094C10.9486 8.56892 10.9913 8.49689 11.0352 8.42269C11.4103 7.67861 11.4451 6.77624 11.3255 5.95638C11.2454 5.77083 11.2454 5.77083 11.1577 5.62081C9.89209 5.89368 8.66075 6.39667 7.75089 7.35732C7.63423 7.46644 7.63423 7.46644 7.46644 7.46644C7.4446 7.51522 7.42275 7.56399 7.40025 7.61424C7.29214 7.81405 7.17021 7.95602 7.01552 8.12185C6.74984 8.41749 6.55912 8.7085 6.37584 9.0604C7.84099 9.11523 9.19293 8.88621 10.3188 7.88591C10.3465 7.83054 10.3742 7.77517 10.4027 7.71812C10.4581 7.74581 10.5134 7.77349 10.5705 7.80201C9.77385 8.93198 8.97878 9.58435 7.71812 10.151C7.64761 10.1832 7.5771 10.2155 7.50446 10.2487C6.36458 10.6371 4.86011 10.4884 3.79614 9.96749C3.70617 9.91731 3.61619 9.86714 3.52349 9.81544C3.6492 9.27069 3.85624 8.78199 4.1055 8.2844C4.13367 8.22795 4.16184 8.1715 4.19086 8.11333C4.36691 7.76874 4.56123 7.44876 4.78188 7.13087C4.96141 7.16934 5.10847 7.20975 5.26951 7.29964C5.67214 7.48155 6.16171 7.4589 6.57345 7.31209C7.00408 7.07214 7.24349 6.76422 7.38255 6.29195C7.46244 5.81077 7.33204 5.46103 7.13087 5.03356C7.13087 4.9505 7.13087 4.86745 7.13087 4.78188C8.14681 3.94577 9.83508 3.2167 11.1577 3.27181C11.1854 3.60403 11.2131 3.93624 11.2416 4.27852C11.259 4.20499 11.2764 4.13145 11.2944 4.05568C11.4907 3.24746 11.7144 2.44947 11.9505 1.65196C12.1129 1.10315 12.2678 0.552793 12.4161 0Z" fill="#353535"/>
<path id="Vector_2" d="M19.3792 18.0369C19.7241 18.1858 19.944 18.384 20.1342 18.7081C20.1932 19.0684 20.1741 19.3665 20.0346 19.7043C19.8123 19.9649 19.631 20.1027 19.2888 20.167C18.9019 20.1959 18.6745 20.1481 18.3725 19.8983C18.0976 19.6405 18.0444 19.4433 18.0002 19.0646C18.0023 18.6869 18.1618 18.501 18.4138 18.2339C18.6987 17.9792 19.0158 17.9984 19.3792 18.0369Z" fill="#353535"/>
<path id="Vector_3" d="M6.20805 18.0369C6.55264 18.1857 6.77003 18.3863 6.96308 18.7081C7.02487 19.0465 6.99846 19.3034 6.85298 19.6152C6.64587 19.8836 6.53467 20.0254 6.20805 20.1342C5.76293 20.163 5.475 20.1788 5.11745 19.8826C4.85011 19.5691 4.82666 19.2857 4.84185 18.8883C4.88839 18.5376 5.03476 18.3571 5.30096 18.1366C5.61364 18.0045 5.87339 17.9873 6.20805 18.0369Z" fill="#353535"/>
<path id="Vector_4" d="M19.6571 4.9654C19.9169 5.14066 20.0178 5.24595 20.1342 5.53692C20.1828 5.86989 20.1686 6.12852 20.0346 6.43877C19.8152 6.71118 19.6438 6.92334 19.2887 7.00144C18.9028 7.02966 18.6733 6.97535 18.3725 6.72715C18.0918 6.46398 18.0411 6.27294 18.0159 5.88298C18.0212 5.56176 18.0789 5.37051 18.2886 5.11746C18.7117 4.76686 19.1653 4.78909 19.6571 4.9654Z" fill="#353535"/>
<path id="Vector_5" d="M6.20806 4.86576C6.55265 5.01456 6.77004 5.21514 6.9631 5.53691C7.02489 5.87538 6.99848 6.13223 6.85299 6.44399C6.64589 6.71246 6.53468 6.85421 6.20806 6.96308C5.64301 7.029 5.64301 7.029 5.36553 6.85658C4.88157 6.44645 4.88157 6.44645 4.84874 6.12514C4.84057 5.72022 4.84297 5.43926 5.11746 5.11744C5.45761 4.8356 5.78307 4.80271 6.20806 4.86576Z" fill="#353535"/>
</g>
</svg>
